<svg width="96" height="24" viewBox="0 0 96 24" fill="none" xmlns="http://www.w3.org/2000/svg" data-sentry-element="svg" data-sentry-component="LogoIcon" data-sentry-source-file="NavLogo.tsx"><path d="M59.6082 22.9952C58.4589 22.9952 57.6838 22.8063 57.0957 22.5902L57.7909 19.6486C58.1861 19.7883 58.6014 19.8614 59.0201 19.8647C60.3021 19.8647 60.677 19.0015 60.677 17.3021V5.97923H64.6056V17.198C64.6056 20.4349 63.3754 22.9952 59.6082 22.9952Z" fill="#1C70EE" data-sentry-element="path" data-sentry-source-file="NavLogo.tsx"></path><path fill-rule="evenodd" clip-rule="evenodd" d="M73.5498 21.0428C78.2339 21.0428 81.065 17.5831 81.065 13.5565C81.065 9.52986 78.2319 6.12099 73.5498 6.12099C68.8676 6.12099 66.084 9.53213 66.084 13.5565C66.084 17.5808 68.9151 21.0428 73.5498 21.0428ZM73.5498 17.686C71.2323 17.686 69.9449 15.7762 69.9449 13.5553C69.9449 11.3344 71.2313 9.42465 73.5498 9.42465C75.9154 9.42465 77.2045 11.3355 77.2045 13.5553C77.2045 15.7751 75.9154 17.686 73.5498 17.686Z" fill="#1C70EE" data-sentry-element="path" data-sentry-source-file="NavLogo.tsx"></path><path fill-rule="evenodd" clip-rule="evenodd" d="M82.4409 0H86.1236V6.48423H88.7678C89.7174 6.48423 90.6578 6.67209 91.5353 7.03712C92.4128 7.40216 93.2101 7.93719 93.8818 8.61166C94.5534 9.28613 95.0863 10.0868 95.4498 10.9681C95.8132 11.8493 96.0002 12.7939 96.0002 13.7477C96.0002 15.6741 95.2382 17.5216 93.8818 18.8838C92.5253 20.246 90.6858 21.0112 88.7678 21.0112H82.4409V0ZM86.1226 16.6724V17.7981H88.2245L88.2235 17.7958C88.7611 17.796 89.2933 17.6898 89.7898 17.4832C90.2866 17.2767 90.7377 16.974 91.118 16.5922C91.4979 16.2105 91.7994 15.7574 92.0052 15.2586C92.2107 14.7599 92.3165 14.2253 92.3165 13.6855C92.3165 12.5954 91.885 11.5499 91.1176 10.7791C90.35 10.0082 89.3091 9.57518 88.2235 9.57518H86.1236V16.6724H86.1226Z" fill="#1C70EE" data-sentry-element="path" data-sentry-source-file="NavLogo.tsx"></path><path d="M22.4363 21.0919C27.0415 21.0919 29.8193 17.6913 29.8193 13.7357C29.8193 9.77998 27.0378 6.42934 22.4363 6.42934C17.8349 6.42934 15.105 9.77816 15.105 13.7357C15.105 17.6931 17.8865 21.0919 22.4363 21.0919ZM22.4363 17.7931C20.1614 17.7931 18.8978 15.917 18.8978 13.7357C18.8978 11.5543 20.1614 9.6764 22.4363 9.6764C24.7629 9.6764 26.0265 11.5543 26.0265 13.7357C26.0265 15.917 24.7629 17.7912 22.4363 17.7912V17.7931ZM37.0996 21.0919C40.9423 21.0919 43.1675 19.214 43.1675 16.6275C43.1675 10.9955 34.8781 12.7199 34.8781 10.6921C34.8781 9.92986 35.7364 9.32117 37.0518 9.32117C38.7704 9.32117 40.34 10.0834 41.1983 10.9456L42.672 8.35536C41.0686 7.09218 39.0856 6.41314 37.0481 6.42934C33.364 6.42934 31.3377 8.46452 31.3377 10.8438C31.3377 16.3222 39.5808 14.4461 39.5808 16.7274C39.5808 17.5914 38.8219 18.2075 37.2546 18.2075C35.5357 18.2075 33.4617 17.2436 32.4504 16.2796L30.8791 18.9013C32.3969 20.2797 34.7235 21.0919 37.0996 21.0919ZM50.3705 21.0919C54.2129 21.0919 56.4381 19.214 56.4381 16.6275C56.4381 10.9955 48.149 12.7199 48.149 10.6921C48.149 9.92986 49.009 9.32117 50.3244 9.32117C52.0429 9.32117 53.6106 10.0834 54.4689 10.9456L55.9426 8.35536C54.3426 7.09418 52.364 6.41463 50.3298 6.42752C46.6366 6.42752 44.6196 8.4627 44.6196 10.842C44.6196 16.3203 52.8608 14.4443 52.8608 16.7255C52.8608 17.5895 52.1019 18.2056 50.5342 18.2056C48.8157 18.2056 46.7417 17.2417 45.7302 16.2778L44.1517 18.9013C45.618 20.2797 47.9426 21.0919 50.3705 21.0919Z" fill="#1C70EE" data-sentry-element="path" data-sentry-source-file="NavLogo.tsx"></path><path fill-rule="evenodd" clip-rule="evenodd" d="M0 0H3.70227V6.51906H6.36032C7.31517 6.51906 8.26061 6.70794 9.14277 7.07497C10.0249 7.44196 10.8264 7.97987 11.5016 8.65803C12.1768 9.33615 12.7124 10.1412 13.0778 11.0272C13.4431 11.9133 13.6312 12.8629 13.6312 13.8219C13.6312 15.7588 12.8652 17.6163 11.5016 18.9858C10.1381 20.3554 8.28867 21.1248 6.36032 21.1248H0V0ZM3.70112 16.7622V17.8942H5.81443L5.81332 17.8919C6.35368 17.8921 6.88879 17.7853 7.38803 17.5777C7.88729 17.3701 8.34095 17.0657 8.72303 16.6819C9.10515 16.2981 9.4082 15.8425 9.61492 15.341C9.82164 14.8396 9.92798 14.3021 9.92782 13.7594C9.92782 12.6633 9.49433 11.6122 8.7227 10.8372C7.95109 10.0622 6.90456 9.62675 5.81332 9.62675H3.70227V16.7622H3.70112Z" fill="#1C70EE" data-sentry-element="path" data-sentry-source-file="NavLogo.tsx"></path><path d="M60.1865 2.35387C60.1865 3.6759 61.1512 4.65419 62.4811 4.65419C62.7842 4.6616 63.0861 4.60715 63.3677 4.4942C63.6496 4.38121 63.9053 4.21202 64.1198 3.99694C64.3344 3.78182 64.5032 3.52528 64.616 3.24285C64.7288 2.96042 64.7831 2.65798 64.7757 2.35387C64.7757 0.97345 63.7867 0.0535355 62.4811 0.0535355C61.1512 0.0535355 60.1865 0.97345 60.1865 2.35387Z" fill="#FFC53D" data-sentry-element="path" data-sentry-source-file="NavLogo.tsx"></path></svg>
