<?xml version="1.0" encoding="UTF-8"?>
<svg id="Layer_1" data-name="Layer 1" xmlns="http://www.w3.org/2000/svg" xmlns:xlink="http://www.w3.org/1999/xlink" viewBox="11.26 355.33 937.33 249.43" preserveAspectRatio="xMinYMid meet">
  <defs>
    <style>
      .cls-1, .cls-2, .cls-3 {
        stroke-width: 0px;
      }

      .cls-2 {
        fill: #fff;
      }

      .cls-4 {
        mask: url(#mask);
      }

      .cls-3 {
        fill: #0d3880;
      }
    </style>
    <mask id="mask" x="11.26" y="355.33" width="249.43" height="249.43" maskUnits="userSpaceOnUse">
      <g id="jobStreetCutArrowOutOfCircle">
        <circle class="cls-2" cx="135.98" cy="480.04" r="124.71"/>
        <path class="cls-1" d="M138.93,402.9c0-4.31,3.48-7.79,7.79-7.79s7.79,3.48,7.79,7.79-3.48,7.79-7.79,7.79-7.79-3.48-7.79-7.79M163.21,429.11c0-4.76,3.86-8.62,8.58-8.62s8.62,3.86,8.62,8.62-3.86,8.58-8.62,8.58-8.58-3.86-8.58-8.58M138.93,429.11c0-4.31,3.48-7.79,7.79-7.79s7.79,3.48,7.79,7.79-3.48,7.79-7.79,7.79-7.79-3.52-7.79-7.79M189,455.39c0-5.33,4.31-9.64,9.64-9.64s9.64,4.31,9.64,9.64-4.31,9.64-9.64,9.64-9.64-4.31-9.64-9.64M163.21,455.31c0-4.76,3.86-8.58,8.58-8.58s8.62,3.86,8.62,8.58-3.86,8.58-8.62,8.58-8.58-3.86-8.58-8.58M138.93,455.31c0-4.31,3.48-7.79,7.79-7.79s7.79,3.48,7.79,7.79-3.48,7.79-7.79,7.79-7.79-3.48-7.79-7.79M115.78,455.31c0-3.78,3.06-6.81,6.81-6.81s6.84,3.06,6.84,6.81-3.06,6.81-6.84,6.81-6.81-3.06-6.81-6.81M96.46,455.31c0-3.21,2.61-5.86,5.82-5.86s5.82,2.61,5.82,5.86-2.61,5.86-5.82,5.86-5.82-2.61-5.82-5.86M78.05,455.31c0-2.68,2.19-4.88,4.88-4.88s4.88,2.19,4.88,4.88-2.16,4.88-4.88,4.88-4.88-2.19-4.88-4.88M62.43,455.31c0-2.16,1.74-3.89,3.89-3.89s3.89,1.74,3.89,3.89-1.74,3.89-3.89,3.89-3.89-1.74-3.89-3.89M47.68,455.31c0-1.63,1.29-2.91,2.91-2.91s2.91,1.32,2.91,2.91-1.32,2.91-2.91,2.91-2.91-1.32-2.91-2.91M35.2,455.31c0-1.1.87-1.93,1.97-1.93s1.93.87,1.93,1.93-.87,1.97-1.93,1.97-1.97-.87-1.97-1.97M189,481.59c0-5.33,4.31-9.64,9.64-9.64s9.64,4.35,9.64,9.64-4.31,9.64-9.64,9.64-9.64-4.31-9.64-9.64M163.21,481.52c0-4.76,3.86-8.58,8.58-8.58s8.62,3.82,8.62,8.58-3.86,8.62-8.62,8.62-8.58-3.86-8.58-8.62M138.93,481.52c0-4.31,3.48-7.79,7.79-7.79s7.79,3.48,7.79,7.79-3.48,7.79-7.79,7.79-7.79-3.48-7.79-7.79M115.78,481.52c0-3.78,3.06-6.81,6.81-6.81s6.84,3.06,6.84,6.81-3.06,6.81-6.84,6.81-6.81-3.06-6.81-6.81M96.46,481.52c0-3.21,2.61-5.86,5.82-5.86s5.82,2.61,5.82,5.86-2.61,5.86-5.82,5.86-5.82-2.61-5.82-5.86M78.05,481.52c0-2.68,2.19-4.88,4.88-4.88s4.88,2.16,4.88,4.88-2.16,4.88-4.88,4.88-4.88-2.19-4.88-4.88M62.43,481.52c0-2.16,1.74-3.89,3.89-3.89s3.89,1.74,3.89,3.89-1.74,3.89-3.89,3.89-3.89-1.74-3.89-3.89M47.68,481.52c0-1.63,1.29-2.91,2.91-2.91s2.91,1.32,2.91,2.91-1.32,2.91-2.91,2.91-2.91-1.29-2.91-2.91M35.2,481.52c0-1.1.87-1.97,1.97-1.97s1.93.87,1.93,1.97-.87,1.97-1.93,1.97-1.97-.87-1.97-1.97M215.47,481.78c0-5.86,4.76-10.59,10.59-10.59s10.59,4.73,10.59,10.59-4.73,10.55-10.59,10.55-10.59-4.73-10.59-10.55M189,507.8c0-5.33,4.31-9.64,9.64-9.64s9.64,4.31,9.64,9.64-4.31,9.64-9.64,9.64-9.64-4.31-9.64-9.64M163.21,507.72c0-4.76,3.86-8.62,8.58-8.62s8.62,3.86,8.62,8.62-3.86,8.58-8.62,8.58-8.58-3.86-8.58-8.58M138.93,507.72c0-4.31,3.48-7.79,7.79-7.79s7.79,3.48,7.79,7.79-3.48,7.79-7.79,7.79-7.79-3.48-7.79-7.79M115.78,507.72c0-3.78,3.06-6.84,6.81-6.84s6.84,3.06,6.84,6.84-3.06,6.81-6.84,6.81-6.81-3.03-6.81-6.81M96.46,507.72c0-3.25,2.61-5.86,5.82-5.86s5.82,2.61,5.82,5.86-2.61,5.82-5.82,5.82-5.82-2.61-5.82-5.82M78.05,507.72c0-2.72,2.19-4.88,4.88-4.88s4.88,2.16,4.88,4.88-2.16,4.88-4.88,4.88-4.88-2.19-4.88-4.88M62.43,507.72c0-2.16,1.74-3.89,3.89-3.89s3.89,1.74,3.89,3.89-1.74,3.89-3.89,3.89-3.89-1.74-3.89-3.89M47.68,507.72c0-1.63,1.29-2.95,2.91-2.95s2.91,1.32,2.91,2.95-1.32,2.91-2.91,2.91-2.91-1.32-2.91-2.91M35.2,507.72c0-1.1.87-1.97,1.97-1.97s1.93.87,1.93,1.97-.87,1.93-1.93,1.93-1.97-.87-1.97-1.93M163.21,533.93c0-4.76,3.86-8.62,8.58-8.62s8.62,3.86,8.62,8.62-3.86,8.58-8.62,8.58-8.58-3.86-8.58-8.58M138.93,533.93c0-4.31,3.48-7.83,7.79-7.83s7.79,3.52,7.79,7.83-3.48,7.79-7.79,7.79-7.79-3.48-7.79-7.79M138.93,560.14c0-4.31,3.48-7.79,7.79-7.79s7.79,3.48,7.79,7.79-3.48,7.79-7.79,7.79-7.79-3.48-7.79-7.79"/>
      </g>
    </mask>
  </defs>
  <circle class="cls-2" cx="135.98" cy="480.04" r="113.45"/>
  <g class="cls-4">
    <circle class="cls-3" cx="135.98" cy="480.04" r="124.71"/>
  </g>
  <path class="cls-1" d="M324.34,419.77h-22.61v-18.3h22.61v18.3ZM324.34,532.91c0,7.03-2.08,12.89-6.2,17.62-4.73,5.41-11.38,8.13-20.04,8.13h-12.78v-18.98h8.55c5.26,0,7.87-2.72,7.87-8.13v-96.54h22.61v97.94-.04ZM393.08,479.89c0-11.04-1.7-18.3-5.14-21.78-2.61-2.65-6.09-3.97-10.44-3.97s-7.64,1.32-10.25,3.97c-3.4,3.44-5.14,10.7-5.14,21.78s1.7,18.49,5.14,21.93c2.61,2.65,6.05,3.97,10.25,3.97s7.79-1.32,10.44-3.97c3.4-3.44,5.14-10.78,5.14-21.93M415.7,479.89c0,8.62-.68,15.5-2.08,20.57-1.51,5.63-4.2,10.47-8.13,14.52-7.03,7.37-16.34,11.04-27.98,11.04s-20.8-3.67-27.79-11.04c-3.93-4.05-6.62-8.85-8.13-14.52-1.4-5.07-2.08-11.91-2.08-20.57,0-16.11,3.44-27.79,10.36-35.05s16.11-10.89,27.64-10.89,20.91,3.63,27.79,10.89c6.92,7.26,10.36,18.95,10.36,35.05M483.92,479.89c0-7.94-.64-13.65-1.89-17.09-2.27-5.75-6.66-8.62-13.16-8.62s-10.89,2.87-13.16,8.62c-1.25,3.44-1.89,9.15-1.89,17.09s.64,13.65,1.89,17.09c2.27,5.86,6.66,8.81,13.16,8.81s10.85-2.95,13.16-8.81c1.25-3.44,1.89-9.15,1.89-17.09M506.53,479.89c0,9.23-.42,16.11-1.21,20.72-1.29,7.49-3.93,13.24-7.94,17.28-5.41,5.41-12.74,8.13-21.93,8.13s-16.71-3.18-22.46-9.49v8.47h-21.78v-123.01h22.61v40.95c5.41-5.97,12.63-8.96,21.71-8.96s16.49,2.72,21.86,8.13c4.01,4.05,6.66,9.79,7.9,17.28.79,4.61,1.21,11.46,1.21,20.57M589.99,496.64c0,9.57-3.71,16.94-11.04,22.12-6.92,4.84-15.96,7.26-27.11,7.26-8.39,0-15.28-.76-20.57-2.23-6.69-1.97-12.59-5.52-17.81-10.7l14.67-14.67c5.63,5.63,13.65,8.47,24.01,8.47s15.88-3.1,15.88-9.34c0-4.95-3.18-7.71-9.49-8.28l-14.18-1.4c-17.51-1.74-26.24-10.13-26.24-25.22,0-8.96,3.52-16.11,10.55-21.4,6.43-4.84,14.52-7.26,24.16-7.26,15.43,0,26.89,3.52,34.37,10.55l-13.8,13.99c-4.5-4.05-11.46-6.05-20.91-6.05-8.51,0-12.78,2.87-12.78,8.62,0,4.61,3.1,7.18,9.34,7.79l14.18,1.4c17.85,1.74,26.77,10.55,26.77,26.43M643.38,524.97h-12.25c-8.51,0-15.13-2.72-19.85-8.13-4.16-4.73-6.2-10.59-6.2-17.62v-44.58h-9.49v-17.09h9.49v-26.58h22.61v26.58h15.73v17.09h-15.73v43.18c0,5.41,2.57,8.13,7.68,8.13h8.02v19.02ZM723.51,442.38l-16.94,17.09c-3.55-3.55-7.53-5.37-11.91-5.37-3.82,0-7.07,1.32-9.83,3.97-3.1,3.1-4.65,7.3-4.65,12.59v54.23h-22.46v-90h21.93v8.62c5.41-6.43,12.97-9.68,22.61-9.68,8.51,0,15.62,2.84,21.25,8.47M782.24,471.57c-.11-3.67-.79-6.92-2.08-9.68-2.76-6.2-7.79-9.34-15.01-9.34s-12.25,3.1-15.01,9.34c-1.29,2.76-1.97,5.97-2.08,9.68h34.18ZM804.36,486.96h-56.31c0,5.97,1.74,10.82,5.26,14.52,3.52,3.67,8.32,5.52,14.41,5.52,7.94,0,14.75-2.84,20.38-8.47l13.65,13.31c-4.95,4.95-9.79,8.47-14.52,10.55-5.41,2.42-11.99,3.63-19.7,3.63-27.76,0-41.63-15.39-41.63-46.13,0-14.41,3.63-25.75,10.89-34.03,7.03-7.94,16.45-11.91,28.32-11.91s21.89,4.08,29,12.25c6.81,7.83,10.17,18.08,10.17,30.74v10.02h.08ZM871.03,471.57c-.11-3.67-.79-6.92-2.08-9.68-2.76-6.2-7.79-9.34-15.01-9.34s-12.25,3.1-15.01,9.34c-1.29,2.76-1.97,5.97-2.08,9.68h34.18ZM893.15,486.96h-56.31c0,5.97,1.74,10.82,5.26,14.52,3.52,3.71,8.32,5.52,14.41,5.52,7.94,0,14.75-2.84,20.38-8.47l13.65,13.31c-4.95,4.95-9.79,8.47-14.52,10.55-5.41,2.42-11.99,3.63-19.7,3.63-27.76,0-41.63-15.39-41.63-46.13,0-14.41,3.63-25.75,10.89-34.03,7.03-7.94,16.45-11.91,28.32-11.91s21.89,4.08,29,12.25c6.81,7.83,10.17,18.08,10.17,30.74v10.02h.08ZM948.59,524.97h-12.25c-8.51,0-15.13-2.72-19.85-8.13-4.16-4.73-6.2-10.59-6.2-17.62v-44.58h-9.49v-17.09h9.49v-26.58h22.61v26.58h15.73v17.09h-15.73v43.18c0,5.41,2.57,8.13,7.68,8.13h8.02v19.02ZM772.33,570.31c0-2.84-.23-4.88-.68-6.13-.83-2.08-2.38-3.1-4.73-3.1s-3.89,1.02-4.73,3.1c-.45,1.25-.68,3.29-.68,6.13s.23,4.88.68,6.13c.83,2.12,2.38,3.14,4.73,3.14s3.89-1.06,4.73-3.14c.45-1.25.68-3.29.68-6.13M780.42,570.31c0,3.29-.15,5.79-.42,7.41-.45,2.68-1.4,4.73-2.84,6.2-1.93,1.93-4.58,2.91-7.87,2.91s-5.97-1.13-8.05-3.4v3.03h-7.79v-44.05h8.09v14.67c1.93-2.16,4.54-3.21,7.79-3.21s5.9.98,7.83,2.91c1.44,1.44,2.38,3.52,2.84,6.2.3,1.66.42,4.12.42,7.37M811.81,554.2l-13.8,37.44c-.64,1.82-1.47,3.21-2.42,4.16-1.66,1.66-3.97,2.46-6.92,2.46h-3.14v-7.22h1.85c1.21,0,2.08-.23,2.65-.61.57-.42,1.02-1.17,1.4-2.31l1.36-3.97-11-29.95h8.47l6.69,19.93,6.43-19.93h8.47-.04ZM851.06,576.28c0,3.44-1.32,6.05-3.97,7.9-2.5,1.74-5.71,2.61-9.72,2.61-3.03,0-5.48-.26-7.37-.79-2.38-.72-4.54-1.97-6.39-3.82l5.26-5.26c2,2.04,4.88,3.03,8.62,3.03s5.67-1.1,5.67-3.33c0-1.78-1.13-2.76-3.4-2.99l-5.07-.49c-6.28-.61-9.42-3.63-9.42-9.04,0-3.21,1.25-5.79,3.78-7.68,2.31-1.74,5.18-2.61,8.66-2.61,5.52,0,9.64,1.25,12.33,3.78l-4.95,5.03c-1.63-1.44-4.12-2.16-7.49-2.16-3.06,0-4.58,1.02-4.58,3.1,0,1.66,1.1,2.57,3.33,2.8l5.07.49c6.39.61,9.61,3.78,9.61,9.45M874.21,567.32c-.04-1.32-.3-2.46-.76-3.48-.98-2.23-2.8-3.33-5.37-3.33s-4.39,1.1-5.37,3.33c-.45.98-.72,2.16-.76,3.48h12.25,0ZM882.11,572.84h-20.19c0,2.16.64,3.89,1.89,5.18,1.25,1.32,2.99,1.97,5.18,1.97,2.84,0,5.29-1.02,7.3-3.03l4.88,4.76c-1.78,1.78-3.52,3.03-5.18,3.78-1.93.87-4.31,1.29-7.07,1.29-9.95,0-14.9-5.52-14.9-16.53,0-5.14,1.29-9.23,3.89-12.18,2.53-2.84,5.9-4.27,10.13-4.27s7.83,1.47,10.4,4.39c2.42,2.8,3.67,6.47,3.67,11v3.63ZM906.01,567.32c-.04-1.32-.3-2.46-.76-3.48-.98-2.23-2.8-3.33-5.37-3.33s-4.39,1.1-5.37,3.33c-.45.98-.72,2.16-.76,3.48h12.25,0ZM913.91,572.84h-20.19c0,2.16.64,3.89,1.89,5.18,1.25,1.32,2.99,1.97,5.18,1.97,2.84,0,5.29-1.02,7.3-3.03l4.88,4.76c-1.78,1.78-3.52,3.03-5.18,3.78-1.93.87-4.31,1.29-7.07,1.29-9.95,0-14.9-5.52-14.9-16.53,0-5.14,1.29-9.23,3.89-12.18,2.53-2.84,5.9-4.27,10.13-4.27s7.83,1.47,10.4,4.39c2.42,2.8,3.67,6.47,3.67,11v3.63ZM948.59,586.46h-9.95l-7.9-13.42-3.4,3.82v9.61h-8.09v-44.05h8.09v25l10.7-13.2h9.68l-11.53,13.01,12.4,19.25Z"/>
</svg>
